<svg width="20" height="20" viewBox="0 0 20 20" fill="none" xmlns="http://www.w3.org/2000/svg">
<g id="Frame">
<path id="Vector" fill-rule="evenodd" clip-rule="evenodd" d="M8 1C8.19891 1 8.38968 1.07902 8.53033 1.21967C8.67098 1.36032 8.75 1.55109 8.75 1.75V6H7.25V1.75C7.25 1.55109 7.32902 1.36032 7.46967 1.21967C7.61032 1.07902 7.80109 1 8 1ZM7.25 6V9.296L6.307 8.248C6.24174 8.17247 6.16207 8.11073 6.07264 8.06639C5.98322 8.02205 5.88584 7.99601 5.78622 7.98978C5.6866 7.98356 5.58674 7.99729 5.4925 8.03016C5.39825 8.06303 5.31151 8.11438 5.23737 8.1812C5.16322 8.24803 5.10316 8.32898 5.06071 8.41931C5.01825 8.50965 4.99425 8.60755 4.99012 8.70728C4.98599 8.807 5.00181 8.90656 5.03664 9.00009C5.07148 9.09363 5.12464 9.17927 5.193 9.252L7.443 11.752C7.51332 11.83 7.59924 11.8923 7.69519 11.935C7.79114 11.9777 7.89499 11.9998 8 11.9998C8.10501 11.9998 8.20886 11.9777 8.30481 11.935C8.40076 11.8923 8.48668 11.83 8.557 11.752L10.807 9.252C10.9353 9.10354 11.0002 8.91074 10.988 8.71493C10.9758 8.51912 10.8873 8.3359 10.7416 8.20455C10.5959 8.07321 10.4045 8.0042 10.2084 8.01232C10.0124 8.02044 9.82737 8.10505 9.693 8.248L8.75 9.296V6H10.75C11.3467 6 11.919 6.23705 12.341 6.65901C12.7629 7.08097 13 7.65326 13 8.25V12.75C13 13.3467 12.7629 13.919 12.341 14.341C11.919 14.7629 11.3467 15 10.75 15H5.25C4.65326 15 4.08097 14.7629 3.65901 14.341C3.23705 13.919 3 13.3467 3 12.75V8.25C3 7.65326 3.23705 7.08097 3.65901 6.65901C4.08097 6.23705 4.65326 6 5.25 6H7.25ZM7 16.75V16.5H10.75C11.2425 16.5 11.7301 16.403 12.1851 16.2145C12.64 16.0261 13.0534 15.7499 13.4017 15.4017C13.7499 15.0534 14.0261 14.64 14.2145 14.1851C14.403 13.7301 14.5 13.2425 14.5 12.75V10H14.75C15.3467 10 15.919 10.2371 16.341 10.659C16.7629 11.081 17 11.6533 17 12.25V16.75C17 17.0455 16.9418 17.3381 16.8287 17.611C16.7157 17.884 16.5499 18.1321 16.341 18.341C16.1321 18.5499 15.884 18.7157 15.611 18.8287C15.3381 18.9418 15.0455 19 14.75 19H9.25C8.95453 19 8.66195 18.9418 8.38896 18.8287C8.11598 18.7157 7.86794 18.5499 7.65901 18.341C7.45008 18.1321 7.28434 17.884 7.17127 17.611C7.0582 17.3381 7 17.0455 7 16.75Z" fill="#211F4D"/>
</g>
</svg>
