<svg width="16" height="16" viewBox="0 0 16 16" fill="none" xmlns="http://www.w3.org/2000/svg">
<g id="heroicons-solid/cloud">
<path id="Union (Stroke)" fill-rule="evenodd" clip-rule="evenodd" d="M2.28571 6.25415C2.28571 3.68352 4.33241 1.59961 6.85714 1.59961C8.78321 1.59961 10.43 2.81198 11.1035 4.52738C11.2103 4.51503 11.3188 4.5087 11.4286 4.5087C13.0065 4.5087 14.2857 5.81114 14.2857 7.41779C14.2857 7.56978 14.2742 7.71929 14.252 7.8654C15.2948 8.46362 16 9.60175 16 10.9087C16 12.8367 14.465 14.3996 12.5714 14.3996H4C1.79086 14.3996 0 12.5762 0 10.3269C0 8.69535 0.941919 7.28905 2.30114 6.63885C2.29092 6.5119 2.28571 6.38359 2.28571 6.25415Z" fill="#211F4D"/>
</g>
</svg>
