<svg xmlns="http://www.w3.org/2000/svg" width="20" height="20" viewBox="0 0 20 20" fill="none">
  <path fill-rule="evenodd" clip-rule="evenodd" d="M3.27997 2.22003C3.13779 2.08755 2.94975 2.01543 2.75545 2.01885C2.56114 2.02228 2.37576 2.10099 2.23835 2.23841C2.10093 2.37582 2.02222 2.56121 2.01879 2.75551C2.01537 2.94981 2.08749 3.13785 2.21997 3.28003L16.72 17.78C16.7886 17.8537 16.8714 17.9128 16.9634 17.9538C17.0554 17.9948 17.1547 18.0168 17.2554 18.0186C17.3561 18.0204 17.4562 18.0019 17.5496 17.9642C17.643 17.9264 17.7278 17.8703 17.799 17.7991C17.8702 17.7278 17.9264 17.643 17.9641 17.5496C18.0018 17.4562 18.0203 17.3562 18.0186 17.2555C18.0168 17.1548 17.9947 17.0555 17.9537 16.9635C17.9128 16.8715 17.8537 16.7887 17.78 16.72L16.035 14.975C17.5205 13.85 18.6633 12.3333 19.335 10.595C19.4816 10.2136 19.4816 9.79142 19.335 9.41003C18.6087 7.5234 17.3279 5.90107 15.6613 4.75681C13.9947 3.61255 12.0206 3.00005 9.99897 3.00003C8.34294 2.99729 6.71239 3.40768 5.25497 4.19403L3.27997 2.22003ZM7.75197 6.69003L8.84397 7.78203C9.31573 7.53545 9.85389 7.44589 10.3801 7.52639C10.9063 7.6069 11.3931 7.85326 11.7695 8.22961C12.146 8.60596 12.3925 9.09266 12.4731 9.61883C12.5538 10.145 12.4644 10.6832 12.218 11.155L13.309 12.247C13.8325 11.4772 14.0712 10.5488 13.9837 9.62183C13.8962 8.69491 13.4881 7.82754 12.8298 7.16919C12.1715 6.51085 11.3041 6.10278 10.3772 6.01531C9.45024 5.92784 8.52184 6.16646 7.75197 6.69003Z" fill="currentCOlor"/>
  <path d="M10.748 13.93L13.271 16.453C12.2191 16.8163 11.1139 17.0011 10.001 17C5.74301 17 2.107 14.34 0.664005 10.59C0.517109 10.2083 0.517109 9.78571 0.664005 9.40402C1.15247 8.14043 1.89242 6.98917 2.839 6.02002L6.07 9.25202C5.9479 9.89284 5.98438 10.5538 6.17627 11.1773C6.36815 11.8008 6.70961 12.3679 7.17089 12.8291C7.63216 13.2904 8.19926 13.6319 8.82275 13.8238C9.44623 14.0156 10.1072 14.0521 10.748 13.93Z" fill="currentCOlor"/>
</svg>
