<svg xmlns="http://www.w3.org/2000/svg" width="20" height="20" viewBox="0 0 20 20" fill="none">
  <path d="M16.5548 5.4117C15.6782 4.16087 14.463 3.18606 13.0518 2.6017C13.8427 3.99336 14.4043 5.50338 14.7148 7.0737C15.4056 6.61208 16.0255 6.0522 16.5548 5.4117ZM13.3258 7.8247C12.9872 5.73723 12.1604 3.75922 10.9128 2.0517C10.3061 1.98277 9.69349 1.98277 9.08677 2.0517C7.83914 3.75922 7.01237 5.73723 6.67377 7.8247C7.72557 8.27171 8.85693 8.50131 9.99977 8.4997C11.1798 8.4997 12.3038 8.2597 13.3258 7.8247ZM6.51377 9.3757C7.62928 9.78986 8.80987 10.0012 9.99977 9.9997C11.2258 9.9997 12.3998 9.7797 13.4858 9.3757C13.5449 10.6389 13.4267 11.9042 13.1348 13.1347C12.1076 13.3782 11.0554 13.5007 9.99977 13.4997C8.92077 13.4997 7.87177 13.3727 6.86577 13.1337C6.57354 11.9036 6.45505 10.6387 6.51377 9.3757ZM5.28477 7.0737C5.5954 5.50373 6.15692 3.99405 6.94777 2.6027C5.53657 3.18706 4.32135 4.16187 3.44477 5.4127C3.97377 6.0507 4.59377 6.6127 5.28477 7.0737ZM17.3338 6.7977C17.899 8.09085 18.1109 9.51087 17.9478 10.9127C16.9705 11.6262 15.9016 12.2047 14.7698 12.6327C14.9998 11.333 15.0583 10.0087 14.9438 8.6937C15.8323 8.1871 16.6383 7.54772 17.3338 6.7977ZM2.66577 6.7977C3.36123 7.54773 4.1672 8.18711 5.05577 8.6937C4.94238 10.009 5.00087 11.3335 5.22977 12.6337C4.09801 12.2057 3.02906 11.6272 2.05177 10.9137C1.88895 9.51178 2.10118 8.09176 2.66677 6.7987L2.66577 6.7977ZM9.99977 14.9997C10.8978 14.9997 11.7778 14.9207 12.6328 14.7697C12.2048 15.9015 11.6262 16.9704 10.9128 17.9477C10.3061 18.0165 9.69349 18.0165 9.08677 17.9477C8.3733 16.9704 7.79477 15.9015 7.36677 14.7697C8.22177 14.9207 9.10178 14.9997 9.99977 14.9997ZM14.3568 14.3567C14.0359 15.4153 13.5982 16.4349 13.0518 17.3967C14.0259 16.9933 14.911 16.402 15.6565 15.6564C16.402 14.9109 16.9934 14.0258 17.3968 13.0517C16.4438 13.5937 15.4258 14.0327 14.3568 14.3567ZM6.94777 17.3967C5.97367 16.9933 5.08857 16.402 4.34305 15.6564C3.59752 14.9109 3.00617 14.0258 2.60277 13.0517C3.55577 13.5937 4.57377 14.0327 5.64277 14.3567C5.96368 15.4153 6.40137 16.4349 6.94777 17.3967Z" fill="#EB8731"/>
</svg>