<svg width="16" height="16" viewBox="0 0 16 16" fill="none" xmlns="http://www.w3.org/2000/svg">
<g id="heroicons-solid/globe-europe-africa" clip-path="url(#clip0_2365_5481)">
<path id="Union" fill-rule="evenodd" clip-rule="evenodd" d="M8 0C3.58172 0 0 3.58172 0 8C0 12.4183 3.58172 16 8 16C12.4183 16 16 12.4183 16 8C16 3.58172 12.4183 0 8 0ZM5.16667 1.85046C2.84321 2.92275 1.23077 5.27307 1.23077 8C1.23077 11.7385 4.26146 14.7692 8 14.7692C11.5398 14.7692 14.4449 12.0523 14.7439 8.59001L14.3657 8.21184C14.2254 8.07153 14.1086 7.90952 14.0199 7.73204L13.1337 5.95963C13.0301 5.75243 12.7539 5.70762 12.5901 5.87143C12.4158 6.04574 12.1607 6.11185 11.9237 6.04412L10.8793 5.74572C10.4826 5.63239 10.0709 5.87015 9.97089 6.27036C9.8961 6.56953 10.0175 6.88342 10.274 7.05447L10.7555 7.37542C11.2401 7.69854 11.308 8.38429 10.8961 8.79618L10.7319 8.96041C10.5588 9.13352 10.4616 9.36831 10.4616 9.61312V9.95018C10.4616 10.2848 10.3706 10.6131 10.1985 10.9L9.11981 12.6978C8.80688 13.2193 8.24325 13.5385 7.63502 13.5385C7.15687 13.5385 6.76925 13.1508 6.76925 12.6727V11.7114C6.76925 10.9565 6.30965 10.2777 5.60874 9.99733L5.07201 9.78264C4.26648 9.46043 3.79399 8.6208 3.93662 7.76503L3.9424 7.73037C3.98047 7.50191 4.0612 7.28265 4.18037 7.08404L4.25373 6.96177C4.65514 6.29274 5.4338 5.94829 6.19885 6.10131L7.16529 6.29459C7.63683 6.3889 8.10178 6.1054 8.23388 5.64303L8.40495 5.0443C8.52698 4.61719 8.3275 4.16374 7.9302 3.96509L7.38464 3.69231L7.30998 3.76697C6.96376 4.11319 6.49418 4.30769 6.00455 4.30769H5.8561C5.65273 4.30769 5.45721 4.38896 5.31341 4.53276C5.08082 4.76535 4.72465 4.82385 4.43045 4.67675C4.03229 4.47767 3.88788 3.98177 4.11691 3.60005L5.16667 1.85046Z" fill="#211F4D"/>
</g>
<defs>
<clipPath id="clip0_2365_5481">
<rect width="16" height="16" fill="white"/>
</clipPath>
</defs>
</svg>
