<svg width="20" height="20" viewBox="0 0 20 20" fill="currentColor" xmlns="http://www.w3.org/2000/svg">
<path d="M16.555 5.41219C15.6784 4.16136 14.4632 3.18655 13.052 2.60219C13.843 3.99384 14.4045 5.50387 14.715 7.07419C15.4059 6.61257 16.0257 6.05268 16.555 5.41219ZM13.326 7.82519C12.9874 5.73772 12.1607 3.7597 10.913 2.05219C10.3063 1.98325 9.69373 1.98325 9.08702 2.05219C7.83938 3.7597 7.01261 5.73772 6.67402 7.82519C7.72582 8.2722 8.85718 8.5018 10 8.50019C11.18 8.50019 12.304 8.26019 13.326 7.82519ZM6.51402 9.37619C7.62953 9.79035 8.81011 10.0017 10 10.0002C11.226 10.0002 12.4 9.78019 13.486 9.37619C13.5451 10.6394 13.427 11.9047 13.135 13.1352C12.1078 13.3787 11.0557 13.5012 10 13.5002C8.92102 13.5002 7.87202 13.3732 6.86602 13.1342C6.57378 11.9041 6.4553 10.6391 6.51402 9.37619ZM5.28502 7.07419C5.59564 5.50422 6.15717 3.99454 6.94802 2.60319C5.53681 3.18755 4.32159 4.16236 3.44502 5.41319C3.97402 6.05119 4.59402 6.61319 5.28502 7.07419ZM17.334 6.79819C17.8993 8.09134 18.1112 9.51136 17.948 10.9132C16.9707 11.6267 15.9018 12.2052 14.77 12.6332C15 11.3334 15.0585 10.0092 14.944 8.69419C15.8326 8.18758 16.6386 7.54821 17.334 6.79819ZM2.66602 6.79819C3.36148 7.54822 4.16744 8.1876 5.05602 8.69419C4.94262 10.0095 5.00112 11.334 5.23002 12.6342C4.09825 12.2062 3.0293 11.6276 2.05202 10.9142C1.8892 9.51227 2.10142 8.09225 2.66702 6.79919L2.66602 6.79819ZM10 15.0002C10.898 15.0002 11.778 14.9212 12.633 14.7702C12.205 15.902 11.6265 16.9709 10.913 17.9482C10.3063 18.017 9.69374 18.017 9.08702 17.9482C8.37355 16.9709 7.79501 15.902 7.36702 14.7702C8.22202 14.9212 9.10202 15.0002 10 15.0002ZM14.357 14.3572C14.0361 15.4158 13.5984 16.4354 13.052 17.3972C14.0261 16.9938 14.9112 16.4024 15.6567 15.6569C16.4023 14.9114 16.9936 14.0263 17.397 13.0522C16.444 13.5942 15.426 14.0332 14.357 14.3572ZM6.94802 17.3972C5.97391 16.9938 5.08882 16.4024 4.34329 15.6569C3.59777 14.9114 3.00642 14.0263 2.60302 13.0522C3.55602 13.5942 4.57402 14.0332 5.64302 14.3572C5.96392 15.4158 6.40161 16.4354 6.94802 17.3972Z" fill="currentColor"/>
</svg>
