<svg width="18" height="18" viewBox="0 0 18 18" fill="none" xmlns="http://www.w3.org/2000/svg">
<path fill-rule="evenodd" clip-rule="evenodd" d="M9.1106 17.75C4.88444 17.75 1.4585 14.3241 1.4585 10.0979C1.4585 7.43258 3.74095 4.24529 8.30643 0.535448C8.77525 0.154851 9.44652 0.154851 9.91478 0.535448C14.4803 4.24529 16.7627 7.43258 16.7627 10.0979C16.7627 14.3241 13.3368 17.75 9.1106 17.75ZM3.37176 10.0973C3.37176 13.2671 5.9415 15.8368 9.11126 15.8368C12.281 15.8368 14.8508 13.2671 14.8508 10.0973C14.8508 8.23165 12.9947 5.57821 9.11126 2.3502C5.2278 5.57878 3.37176 8.23165 3.37176 10.0973ZM9.11067 13.9236L9.11576 5.36499C9.4087 5.36612 9.70107 5.46792 9.93803 5.66981C11.9377 7.3743 12.937 8.85032 12.937 10.0973C12.937 12.2107 11.224 13.9236 9.11067 13.9236Z" fill="currentColor"/>
</svg>
