<svg xmlns="http://www.w3.org/2000/svg" width="49" height="40" viewBox="0 0 49 40" fill="none">
  <path fill-rule="evenodd" clip-rule="evenodd" d="M33.1707 0H0V40H1.95122V1.95122H33.1707C40.4447 1.95122 46.3415 7.84796 46.3415 15.122C46.3415 22.3959 40.4447 28.2927 33.1707 28.2927H15.6098V30.2439H33.1707C38.2895 30.2439 42.439 34.3935 42.439 39.5122L42.439 40H44.3902V39.5122C44.3902 35.0803 41.8206 31.2487 38.0899 29.4258C44.0266 27.3845 48.2927 21.7514 48.2927 15.122C48.2927 6.77033 41.5224 0 33.1707 0ZM33.1707 5.85366C38.2895 5.85366 42.439 10.0032 42.439 15.122C42.439 20.2407 38.2895 24.3902 33.1707 24.3902L15.6098 24.3903V26.3415L33.1707 26.3415C39.3671 26.3415 44.3902 21.3183 44.3902 15.122C44.3902 8.92559 39.3671 3.90244 33.1707 3.90244H3.90244V40H5.85366V5.85366H33.1707ZM38.5366 15.122C38.5366 12.1585 36.1342 9.7561 33.1707 9.7561H9.7561V40H7.80488V7.80488H33.1707C37.2118 7.80488 40.4878 11.0808 40.4878 15.122C40.4878 19.1631 37.2118 22.439 33.1707 22.439L15.6098 22.439V20.4878H33.1707C36.1342 20.4878 38.5366 18.0854 38.5366 15.122ZM33.1707 13.6585C33.979 13.6585 34.6341 14.3137 34.6341 15.122C34.6341 15.9302 33.979 16.5854 33.1707 16.5854L15.6098 16.5854V18.5366L33.1707 18.5366C35.0566 18.5366 36.5854 17.0078 36.5854 15.122C36.5854 13.2361 35.0566 11.7073 33.1707 11.7073H11.7073V40H13.6585V13.6585H33.1707ZM15.6098 32.1951L33.1707 32.1951C37.2118 32.1951 40.4878 35.4711 40.4878 39.5122L40.4878 40H38.5366L38.5366 39.5122C38.5366 36.5487 36.1342 34.1463 33.1707 34.1463L15.6098 34.1464V32.1951ZM15.6098 36.0976L33.1707 36.0976C35.0566 36.0976 36.5854 37.6263 36.5854 39.5122V40H34.6341V39.5122C34.6341 38.704 33.979 38.0488 33.1707 38.0488L15.6098 38.0488L15.6098 36.0976Z" fill="#EB8731"/>
</svg>
