<svg width="17" height="16" viewBox="0 0 17 16" fill="none" xmlns="http://www.w3.org/2000/svg">
<g id="heroicons-solid/user-group" clip-path="url(#clip0_2365_5473)">
<g id="Vector">
<path fill-rule="evenodd" clip-rule="evenodd" d="M5.64286 4.33974C5.64286 2.80807 6.92204 1.56641 8.5 1.56641C10.078 1.56641 11.3571 2.80807 11.3571 4.33974C11.3571 5.87141 10.078 7.11307 8.5 7.11307C6.92204 7.11307 5.64286 5.87141 5.64286 4.33974Z" fill="#211F4D"/>
<path fill-rule="evenodd" clip-rule="evenodd" d="M11.3571 6.55841C11.3571 5.33307 12.3805 4.33974 13.6429 4.33974C14.9052 4.33974 15.9286 5.33307 15.9286 6.55841C15.9286 7.78374 14.9052 8.77707 13.6429 8.77707C12.3805 8.77707 11.3571 7.78374 11.3571 6.55841Z" fill="#211F4D"/>
<path fill-rule="evenodd" clip-rule="evenodd" d="M1.07143 6.55841C1.07143 5.33307 2.09478 4.33974 3.35714 4.33974C4.61951 4.33974 5.64286 5.33307 5.64286 6.55841C5.64286 7.78374 4.61951 8.77707 3.35714 8.77707C2.09478 8.77707 1.07143 7.78374 1.07143 6.55841Z" fill="#211F4D"/>
<path fill-rule="evenodd" clip-rule="evenodd" d="M4.16466 10.528C5.0774 9.14272 6.67779 8.22241 8.5 8.22241C10.3224 8.22241 11.923 9.14294 12.8357 10.5285C13.4667 11.4864 13.7396 12.6414 13.6116 13.7675C13.5916 13.9435 13.4862 14.0997 13.328 14.1878C11.9053 14.9802 10.2563 15.4331 8.5 15.4331C6.74375 15.4331 5.09473 14.9802 3.672 14.1878C3.51378 14.0997 3.40842 13.9435 3.38841 13.7675C3.26033 12.6412 3.53346 11.486 4.16466 10.528Z" fill="#211F4D"/>
<path d="M3.22936 9.88913C3.22018 9.90281 3.21106 9.91653 3.202 9.93029C2.46641 11.0467 2.12977 12.3763 2.23311 13.687C1.76984 13.6187 1.32034 13.5088 0.888898 13.3613L0.80131 13.3314C0.64153 13.2768 0.529888 13.1359 0.51645 12.972L0.509084 12.8822C0.503061 12.8087 0.5 12.7345 0.5 12.6597C0.5 11.1696 1.7107 9.95401 3.22936 9.88913Z" fill="#211F4D"/>
<path d="M14.7672 13.6869C14.8705 12.3765 14.534 11.0472 13.7987 9.93091C13.7895 9.91695 13.7802 9.90303 13.7709 9.88914C15.2894 9.95416 16.5 11.1697 16.5 12.6597C16.5 12.7345 16.4969 12.8087 16.4909 12.8822L16.4835 12.972C16.4701 13.1359 16.3585 13.2768 16.1987 13.3314L16.1111 13.3613C15.6797 13.5088 15.2303 13.6186 14.7672 13.6869Z" fill="#211F4D"/>
</g>
</g>
<defs>
<clipPath id="clip0_2365_5473">
<rect width="16" height="16" fill="white" transform="translate(0.5)"/>
</clipPath>
</defs>
</svg>
