<svg width="32" height="32" viewBox="0 0 32 32" fill="none" xmlns="http://www.w3.org/2000/svg">
<path d="M22.5915 10.0737C22.3904 10.0737 22.2286 10.2366 22.2286 10.4366C22.2286 10.6378 22.3904 10.801 22.5915 10.801C22.7927 10.801 22.9548 10.6381 22.9548 10.4366C22.9546 10.2368 22.7927 10.0737 22.5915 10.0737ZM21.9839 7.63281C22.0639 7.63408 22.1273 7.69973 22.1261 7.78003L22.093 9.03482C22.5861 9.19264 22.8649 9.45299 23.1584 9.74491C23.4728 10.058 23.8172 10.3356 24.5394 10.7143C24.7404 10.8196 24.8629 11.0131 24.8907 11.2262C24.9169 11.4393 24.8535 11.6706 24.7142 11.881C24.4366 12.302 23.8422 12.6426 22.9437 12.6151L22.3627 12.6767C22.423 12.9727 22.3942 13.2845 22.2798 13.5567C22.5165 13.7343 22.6599 14.0103 22.6665 14.3103C22.6705 14.585 22.5586 14.8444 22.3642 15.0297C22.5652 15.2057 22.6877 15.4597 22.6927 15.7345C22.698 16.0201 22.5745 16.2911 22.3654 16.4767C22.5389 16.6976 22.6127 16.984 22.5561 17.2643C22.5036 17.5277 22.343 17.7524 22.1208 17.8918C22.2932 18.089 22.3801 18.3494 22.3548 18.6163C22.3273 18.9095 22.167 19.1711 21.9248 19.3304C22.0339 19.5988 22.018 19.9052 21.8761 20.163C21.7435 20.4036 21.5157 20.5721 21.2556 20.6349C21.3412 20.8887 21.3213 21.1703 21.1882 21.4097C21.0334 21.6897 20.7518 21.87 20.4374 21.9016C20.2271 22.2473 19.9049 22.4736 19.5445 22.5842C19.5183 22.7077 19.4983 22.8407 19.4852 22.9854L19.0551 25.867L19.6402 26.5339C19.6665 26.5967 19.6203 26.6664 19.5521 26.6664H18.3751C18.3253 26.6664 18.2832 26.6283 18.2791 26.5783L17.9438 22.3013C17.9147 22.2804 17.8844 22.2607 17.8569 22.2369C17.4491 22.6551 17.0193 22.8736 16.4577 22.8986C15.9948 22.9195 15.5276 22.8367 15.1304 22.5695C14.9504 22.7683 14.6938 22.8867 14.4191 22.8867C14.1443 22.8867 13.8878 22.7683 13.7062 22.5695C13.5261 22.7683 13.2696 22.8867 12.9958 22.8867C12.7239 22.8867 12.4686 22.7708 12.2885 22.5763C11.7731 23.1642 10.8853 22.8208 10.4181 22.3541C10.1656 22.6579 9.73957 22.7523 9.2921 22.6958C9.04766 23.0405 8.907 23.523 8.98579 24.0703L9.24362 25.867L9.86179 26.5457C9.87896 26.6061 9.83149 26.668 9.76861 26.6667H8.56357C8.51787 26.6667 8.47948 26.6341 8.47039 26.5907L7.72722 24.0836C7.47066 23.2198 7.61131 22.6594 7.96131 22.0516C7.49591 21.5837 7.26965 20.9193 7.73631 20.4193C7.52091 20.288 7.36157 20.0761 7.30096 19.8236C7.23126 19.5408 7.29591 19.2435 7.46788 19.0148C7.26561 18.812 7.155 18.5266 7.18682 18.2372C7.21939 17.9441 7.34313 17.7875 7.54566 17.6191C7.405 17.4625 7.28531 17.2878 7.205 17.1037C6.82243 16.237 7.60222 15.2138 8.05474 15.6936C8.32545 15.9804 8.50827 16.1736 8.78074 16.3262C8.87266 16.108 9.06483 15.9411 9.33326 15.8658C9.62897 15.7817 9.91583 15.8342 10.1461 15.988C10.2893 15.712 10.5575 15.5201 10.8706 15.4779C11.1575 15.4395 11.4441 15.5358 11.6532 15.7292C11.7767 15.4938 11.9926 15.3161 12.2555 15.2451C12.5342 15.1716 12.8289 15.2269 13.0605 15.3898C13.2421 15.1726 13.5102 15.0426 13.7996 15.0426C14.0878 15.0426 14.3572 15.1726 14.5388 15.3898C14.7703 15.2269 15.0638 15.1716 15.3425 15.2451C15.5991 15.3148 15.8135 15.4858 15.9385 15.712C16.1423 15.5514 16.4041 15.4754 16.6685 15.5108C16.9776 15.5514 17.2433 15.7398 17.389 16.012C17.4799 15.9017 17.5902 15.808 17.7089 15.7411C17.8574 15.657 18.0243 15.6148 18.1915 15.6161C18.1165 15.4663 18.0811 15.2979 18.0928 15.1269C18.1099 14.8401 18.2561 14.5825 18.4809 14.4141C18.3256 14.181 18.2756 13.8878 18.3546 13.6131C18.4306 13.3484 18.6162 13.133 18.8569 13.0143C18.7175 12.7858 18.6741 12.508 18.7501 12.2449C18.8342 11.9489 19.0554 11.7136 19.3392 11.6073C19.3198 11.5929 19.3039 11.5717 19.2945 11.5494C19.1316 11.2441 19.1433 10.8775 19.3261 10.5851C19.4708 10.3525 19.7076 10.1959 19.9718 10.1474C19.898 9.88961 19.9337 9.60804 20.0786 9.37547C20.2374 9.12169 20.5018 8.9583 20.7955 8.92699C20.819 8.6573 20.9124 8.37169 21.0821 8.1323C21.2804 7.85099 21.592 7.63281 21.9839 7.63281Z" fill="currentColor"/>
<path d="M10.3826 22.7148C10.5248 22.8633 10.7071 22.9868 10.9636 23.0515C11.1003 23.0868 11.2477 23.108 11.3962 23.1159C11.1518 23.5249 11.0043 23.9812 11.0939 24.355L11.1624 25.8673L11.7805 26.5449C11.7949 26.6052 11.749 26.6643 11.6874 26.6643H10.6023C10.5576 26.6643 10.5194 26.6327 10.5091 26.5895L9.60936 23.0108C9.89067 22.9871 10.1576 22.8924 10.3826 22.7148Z" fill="currentColor"/>
<path d="M17.2412 22.9883C16.9046 23.7527 16.3915 25.0794 16.5533 25.9542L17.1149 26.5357C17.1412 26.5986 17.095 26.667 17.0281 26.6683H16.0521C16.0114 26.6683 15.9761 26.6433 15.9629 26.6054C15.6104 25.5941 15.7379 24.239 15.9801 23.1067C16.1521 23.1095 16.3233 23.1279 16.4771 23.1267C16.7508 23.1226 17.0046 23.0608 17.2412 22.9883Z" fill="currentColor"/>
</svg>
