<svg width="32" height="32" viewBox="0 0 32 32" fill="none" xmlns="http://www.w3.org/2000/svg">
<path d="M7.27169 17.735C7.11823 17.4948 7.09155 17.1901 7.1983 16.881C7.31395 16.5451 7.56972 16.2649 7.84772 16.1648C7.91222 16.1426 8.2525 16.0358 8.48603 16.2405C8.63059 16.3672 8.69954 16.5941 8.67285 16.8476C8.64394 17.1034 8.53051 17.308 8.36815 17.397C8.2703 17.4503 8.1502 17.4148 8.09682 17.3169C8.04344 17.219 8.07903 17.0989 8.17689 17.0456C8.20358 17.0322 8.25917 16.9455 8.27474 16.8054C8.28809 16.6764 8.25918 16.5763 8.22359 16.5429C8.17911 16.5029 8.05456 16.5185 7.98339 16.5429C7.81881 16.6007 7.65201 16.7942 7.57861 17.0122C7.5408 17.1234 7.4941 17.3391 7.60975 17.5215C7.78545 17.7973 8.21914 17.7884 8.22359 17.7862C8.23026 17.7862 8.23471 17.7884 8.24138 17.7884C8.67285 17.3302 9.30003 16.9833 10.1096 16.7587C11.9778 16.2382 14.342 16.5296 15.0848 16.9522C15.7298 17.3169 16.9063 17.2858 17.9449 17.2591C18.73 17.2391 19.5418 17.2168 19.7331 17.4081C20.1579 17.8329 20.8451 17.8662 21.1253 17.8596C21.2165 17.8596 21.2966 17.804 21.3366 17.7172C21.5813 17.1835 22.5154 16.7676 22.9046 16.6119L22.9246 16.6319L22.74 17.3925C22.7311 17.4237 22.74 17.457 22.7578 17.4815C22.2707 17.8151 21.8815 18.3288 21.5768 18.7292L21.5235 18.7981C21.4856 18.847 21.4968 18.916 21.5457 18.9538C21.5946 18.9916 21.6636 18.9805 21.7014 18.9316L21.7548 18.8626C22.1373 18.3555 22.6622 17.6616 23.3249 17.4348C23.6074 17.3369 23.8609 17.308 24.03 17.3013C24.0344 17.3258 24.0366 17.3636 24.0389 17.3792C24.0389 17.3947 24.0389 17.4081 24.0411 17.417C24.0633 17.606 23.9388 17.7595 23.752 17.9908C23.6719 18.0886 23.5852 18.1976 23.4962 18.3244C23.1848 18.767 23.0291 18.9894 23.0536 19.2452C23.127 20.0013 24.5415 20.5084 24.6416 20.524L24.8662 21.5448C24.6705 21.7695 23.663 22.817 22.7489 22.8659C21.7147 22.9215 20.8006 23.0016 20.0912 23.4019C20.0823 23.4064 20.0734 23.413 20.0667 23.4219L19.4551 24.0469C19.4351 24.0669 19.0281 24.5117 19.0636 25.1945C19.0636 25.2256 19.0725 25.259 19.0881 25.2879C19.1504 25.4169 19.4573 26.0819 19.5085 26.5934L19.4929 26.6157H18.6544C18.6544 26.5934 18.6589 26.5712 18.6544 26.5512C18.5388 26.0041 18.2185 24.1648 18.9969 23.5064C19.9933 22.6635 20.0511 21.7739 20.0534 21.7383C20.0556 21.676 20.0089 21.6249 19.9488 21.6227C19.8888 21.6182 19.8354 21.6672 19.8309 21.7272C19.8309 21.7361 19.7731 22.5612 18.8524 23.3374C17.9805 24.0736 18.3141 26.0196 18.4365 26.5979L18.4209 26.6179H17.4512C17.4512 26.6179 17.4356 26.6112 17.4356 26.6023V26.0152C17.4356 25.9729 17.4267 25.9351 17.4067 25.8995C17.28 25.6727 16.1813 23.651 16.3725 22.2276C16.3814 22.1676 16.337 22.1097 16.2769 22.1031C16.2146 22.0964 16.159 22.1387 16.1524 22.1987C16.1101 22.5123 16.1279 22.8526 16.1813 23.1951C16.1679 23.1906 16.1524 23.1884 16.1368 23.1906C13.3701 23.5198 12.1624 23.0994 11.8577 22.9616C11.7999 22.9349 11.7332 22.9326 11.6731 22.9571C11.6153 22.9793 11.5686 23.0238 11.5441 23.0817C11.2883 23.6844 10.5033 24.425 10.2675 24.6363C10.1763 24.7186 10.163 24.8542 10.2341 24.9543L11.1438 26.2042V26.6513C11.1438 26.6513 11.1393 26.6668 11.1304 26.6668H10.034L9.06651 25.6682V24.4406C9.39122 24.2649 11.0059 23.3552 11.6197 21.4336C11.6375 21.3758 11.6064 21.3135 11.5486 21.2935C11.4907 21.2757 11.4285 21.3069 11.4084 21.3647C10.8213 23.204 9.27779 24.0714 8.97532 24.227C8.89526 24.2671 8.84632 24.3494 8.84632 24.4383V26.6401C8.84632 26.6401 8.83965 26.6557 8.83076 26.6557H7.97672C7.97672 26.6557 7.96115 26.649 7.96115 26.6401C7.95448 26.2932 7.91667 25.9485 7.88331 25.6438C7.82549 25.1144 7.77656 24.6563 7.89221 24.3894C8.07903 23.9624 8.10571 23.4197 8.11016 23.2618C8.11016 23.2173 8.10127 23.1773 8.07903 23.1373C7.92779 22.8726 6.63784 20.4862 7.87664 18.2866C7.9011 18.2421 7.93224 18.2021 7.95893 18.1598C7.74097 18.1198 7.45184 18.013 7.27614 17.735H7.27169ZM21.8526 20.2994C21.8904 20.3372 21.9416 20.3594 21.995 20.3594C22.0216 20.3594 22.0461 20.3527 22.0706 20.3438C22.095 20.3327 22.1173 20.3171 22.1373 20.2994C22.1729 20.2615 22.1951 20.2104 22.1951 20.1592C22.1951 20.1081 22.1729 20.0547 22.1373 20.0169C22.1173 19.9969 22.095 19.9835 22.0706 19.9724C21.9972 19.9435 21.9082 19.9613 21.8526 20.0169C21.817 20.0547 21.7948 20.1059 21.7948 20.1592C21.7948 20.2126 21.817 20.2615 21.8526 20.2994Z" fill="currentColor"/>
</svg>
